HIERARCHY
ROOT Hips
{
    OFFSET 0.000000 0.000000 0.000000
    CHANNELS 6 Xposition Yposition Zposition Zrotation Xrotation Yrotation
    JOINT Spine
    {
        OFFSET -0.000000 8.505030 0.000000
        CHANNELS 3 Zrotation Xrotation Yrotation
        JOINT Spine1
        {
            OFFSET -0.000000 25.070629 0.000000
            CHANNELS 3 Zrotation Xrotation Yrotation
            JOINT Neck
            {
                OFFSET -0.000000 24.967667 2.269788
                CHANNELS 3 Zrotation Xrotation Yrotation
                JOINT Head
                {
                    OFFSET -0.000000 14.520781 -2.074397
                    CHANNELS 3 Zrotation Xrotation Yrotation
                    End Site
                    {
                        OFFSET -0.000000 25.929966 0.000000
                    }
                }
            }
            JOINT LeftShoulder
            {
                OFFSET 4.117346 22.983784 -0.389865
                CHANNELS 3 Zrotation Xrotation Yrotation
                JOINT LeftArm
                {
                    OFFSET 11.957758 0.000000 0.000000
                    CHANNELS 3 Zrotation Xrotation Yrotation
                    JOINT LeftForeArm
                    {
                        OFFSET 31.907600 0.000000 0.000000
                        CHANNELS 3 Zrotation Xrotation Yrotation
                        JOINT LeftHand
                        {
                            OFFSET 28.601147 0.000000 0.000000
                            CHANNELS 3 Zrotation Xrotation Yrotation
                            End Site
                            {
                                OFFSET 15.557981 0.000000 0.000000
                            }
                        }
                    }
                }
            }
            JOINT RightShoulder
            {
                OFFSET -4.061940 22.983784 -0.389865
                CHANNELS 3 Zrotation Xrotation Yrotation
                JOINT RightArm
                {
                    OFFSET -11.957758 0.000000 0.000000
                    CHANNELS 3 Zrotation Xrotation Yrotation
                    JOINT RightForeArm
                    {
                        OFFSET -31.907600 0.000000 0.000000
                        CHANNELS 3 Zrotation Xrotation Yrotation
                        JOINT RightHand
                        {
                            OFFSET -28.601147 0.000000 0.000000
                            CHANNELS 3 Zrotation Xrotation Yrotation
                            End Site
                            {
                                OFFSET -15.557981 0.000000 0.000000
                            }
                        }
                    }
                }
            }
        }
    }
    JOINT LeftUpLeg
    {
        OFFSET 10.371986 0.000000 0.000000
        CHANNELS 3 Zrotation Xrotation Yrotation
        JOINT LeftLeg
        {
            OFFSET -0.000000 -42.486427 0.000000
            CHANNELS 3 Zrotation Xrotation Yrotation
            JOINT LeftFoot
            {
                OFFSET -0.000000 -48.322342 0.000000
                CHANNELS 3 Zrotation Xrotation Yrotation
                JOINT LeftToeBase
                {
                    OFFSET -0.000000 -6.741791 15.557981
                    CHANNELS 3 Zrotation Xrotation Yrotation
                    End Site
                    {
                        OFFSET -0.000000 0.000000 4.148795
                    }
                }
            }
        }
    }
    JOINT RightUpLeg
    {
        OFFSET -10.371986 0.000000 0.000000
        CHANNELS 3 Zrotation Xrotation Yrotation
        JOINT RightLeg
        {
            OFFSET -0.000000 -42.486427 0.000000
            CHANNELS 3 Zrotation Xrotation Yrotation
            JOINT RightFoot
            {
                OFFSET -0.000000 -48.322342 0.000000
                CHANNELS 3 Zrotation Xrotation Yrotation
                JOINT RightToeBase
                {
                    OFFSET -0.000000 -6.741791 15.557981
                    CHANNELS 3 Zrotation Xrotation Yrotation
                    End Site
                    {
                        OFFSET -0.000000 0.000000 4.148795
                    }
                }
            }
        }
    }
}
MOTION
Frames:    13
Frame Time:    0.008333
-6.323925    98.954140    68.274437    -0.956415    -1.828959    88.031761    1.010008    -7.194833    0.804369    1.077640    -6.568109    0.802781    1.857795    31.835964    -4.452212    1.518155    0.786281    -4.140935    13.329433    1.360263    -14.422798    -9.704597    3.682262    -4.668754    -1.533597    -4.480637    24.461878    1.423184    -4.180382    -2.524413    -14.325894    3.849042    -6.503655    7.575266    5.373763    25.046076    3.429184    2.006721    -18.650295    1.684262    2.514315    -3.760702    5.026039    5.332155    3.821308    -1.677622    3.788262    4.907994    -4.715710    -7.031500    7.318669    0.000000    0.000000    0.000000    -0.386339    4.851522    4.367836    1.426841    2.395977    -1.598635    3.006519    -4.644843    -13.605524    0.000000    0.000000    0.000000    
-6.316596    98.954735    68.282188    -0.937920    -1.830685    88.041100    0.996730    -7.189754    0.806519    1.079876    -6.569549    0.805875    1.564576    31.543816    -4.447740    1.841682    1.196196    -4.149023    13.338511    1.341941    -14.440816    -9.704058    3.736645    -4.672446    -1.580050    -4.448092    24.465801    1.454322    -4.139816    -2.634835    -14.332253    3.854890    -6.494118    7.608008    5.298028    25.023064    3.454829    2.019728    -18.646381    1.708866    2.530709    -3.752239    5.025122    5.335778    3.828963    -1.667016    3.827114    4.806730    -4.700275    -7.058720    7.409963    0.000000    0.000000    0.000000    -0.381499    4.863577    4.380087    1.429935    2.423412    -1.542587    2.998370    -4.666022    -13.681668    0.000000    0.000000    0.000000    
-6.308344    98.953163    68.292091    -0.912070    -1.833197    88.054726    0.988432    -7.186176    0.801551    1.075062    -6.556610    0.801113    1.587468    31.524172    -4.442441    1.765505    1.132611    -4.149458    13.347197    1.334281    -14.454429    -9.696773    3.820925    -4.668359    -1.441899    -4.620375    24.400881    1.264054    -4.337248    -2.521006    -14.326822    3.841985    -6.488297    7.626651    5.256988    25.019033    3.470433    2.022817    -18.644363    1.738445    2.534835    -3.783792    5.031187    5.347338    3.830978    -1.660597    3.854899    4.788989    -4.699080    -7.069315    7.415307    0.000000    0.000000    0.000000    -0.369339    4.876939    4.337127    1.423160    2.457223    -1.520010    2.999687    -4.688269    -13.671383    0.000000    0.000000    0.000000    
-6.303529    98.951866    68.301109    -0.893539    -1.843326    88.072212    0.985634    -7.179669    0.795074    1.074493    -6.562449    0.794908    1.598306    31.438314    -4.470968    1.666547    1.238174    -4.193610    13.361314    1.340887    -14.474514    -9.693636    3.862485    -4.666642    -1.394278    -4.709885    24.390436    1.271633    -4.437311    -2.517026    -14.316916    3.836361    -6.461927    7.644085    5.220127    24.987974    3.482472    2.090043    -18.625410    2.076285    2.590810    -3.863321    5.047141    5.348043    3.835927    -1.658703    3.874230    4.994060    -4.724638    -7.051817    7.191730    0.000000    0.000000    0.000000    -0.350329    4.884434    4.313570    1.421107    2.495315    -1.437524    2.981356    -4.708918    -13.745059    0.000000    0.000000    0.000000    
-6.301024    98.950897    68.306206    -0.871852    -1.844067    88.095024    0.979437    -7.165189    0.786913    1.068314    -6.567426    0.786904    1.792766    31.536459    -4.518524    1.344845    1.006054    -4.251760    13.363415    1.316484    -14.484741    -9.685621    3.950902    -4.670862    -1.358656    -4.785224    24.379835    1.185822    -4.519333    -2.585642    -14.314244    3.820663    -6.455952    7.672046    5.184666    24.973019    3.496850    2.109452    -18.618629    2.103762    2.611733    -3.848060    5.043498    5.344131    3.840599    -1.639174    3.914024    4.932847    -4.739604    -7.069597    7.229407    0.000000    0.000000    0.000000    -0.345884    4.895355    4.344897    1.428687    2.518063    -1.497026    2.995836    -4.725352    -13.737065    0.000000    0.000000    0.000000    
-6.298199    98.949394    68.314323    -0.858319    -1.848081    88.115562    0.952646    -7.167675    0.783766    1.098567    -6.558934    0.787042    1.803887    31.474833    -4.524800    1.259965    1.066140    -4.269816    13.380231    1.303796    -14.515489    -9.700050    3.988513    -4.672329    -1.343884    -4.813048    24.373632    1.112832    -4.549315    -2.641879    -14.324392    3.807366    -6.463244    7.696256    5.148757    24.959991    3.517610    2.074957    -18.604193    1.909929    2.587901    -3.775508    5.052461    5.340513    3.823936    -1.637760    3.938436    4.973640    -4.762224    -7.081215    7.190533    0.000000    0.000000    0.000000    -0.336321    4.896825    4.322136    1.429989    2.551663    -1.472660    2.996545    -4.751524    -13.758679    0.000000    0.000000    0.000000    
-6.293649    98.947235    68.322845    -0.838160    -1.854478    88.129364    0.935735    -7.165732    0.781071    1.118163    -6.549402    0.786525    1.743860    31.462009    -4.538522    1.281602    1.064415    -4.290481    13.395189    1.287672    -14.527784    -9.709186    4.033394    -4.682495    -1.335338    -4.829083    24.351889    0.947799    -4.564750    -2.778718    -14.333388    3.798553    -6.456889    7.730799    5.126018    24.940285    3.517817    2.016501    -18.610628    1.658338    2.539499    -3.672123    5.064978    5.347434    3.820870    -1.639446    3.978123    4.772931    -4.732775    -7.127293    7.383276    0.000000    0.000000    0.000000    -0.320095    4.900375    4.293417    1.425814    2.588166    -1.479857    2.950483    -4.751894    -13.730593    0.000000    0.000000    0.000000    
-6.292184    98.946152    68.325462    -0.821159    -1.850887    88.145561    0.929631    -7.165753    0.777839    1.098773    -6.540468    0.782406    1.769568    31.414703    -4.552819    1.219126    1.138919    -4.311491    13.436084    1.278305    -14.547097    -9.727154    4.064694    -4.681413    -1.331844    -4.806666    24.327007    0.843683    -4.540946    -2.787861    -14.314843    3.768217    -6.457728    7.754477    5.118371    24.932772    3.523575    2.007190    -18.568140    1.624747    2.529196    -3.788887    5.059407    5.348754    3.812099    -1.634864    4.006008    4.763626    -4.707787    -7.139581    7.395534    0.000000    0.000000    0.000000    -0.323918    4.905625    4.229360    1.430474    2.616210    -1.424047    2.933387    -4.769117    -13.741035    0.000000    0.000000    0.000000    
-6.292906    98.945107    68.330612    -0.802324    -1.853878    88.160187    0.918413    -7.160613    0.769370    1.115279    -6.526304    0.775442    1.739703    31.358660    -4.552936    1.173934    1.212588    -4.323871    13.440453    1.258581    -14.527124    -9.722671    4.088619    -4.713359    -1.330195    -4.807650    24.302893    0.816757    -4.541851    -2.773645    -14.329387    3.765501    -6.456573    7.791974    5.073112    24.931894    3.553708    2.051924    -18.554012    1.605770    2.579076    -3.784289    5.062483    5.346169    3.819639    -1.622250    4.037004    4.744823    -4.724678    -7.147448    7.387868    0.000000    0.000000    0.000000    -0.316075    4.927950    4.310448    1.431979    2.613234    -1.485102    2.938131    -4.779641    -13.772749    0.000000    0.000000    0.000000    
-6.291418    98.943924    68.335739    -0.785170    -1.856163    88.168686    0.921880    -7.155993    0.762854    1.099289    -6.531249    0.767929    1.713929    31.404161    -4.542816    1.165748    1.186068    -4.317216    13.449795    1.243317    -14.535864    -9.703675    4.064992    -4.707940    -1.339285    -4.786334    24.271204    0.777482    -4.517742    -2.733820    -14.297881    3.778655    -6.443081    7.807795    5.026039    24.932281    3.586553    2.100300    -18.540800    1.545352    2.634437    -3.780300    5.066833    5.352627    3.814713    -1.622074    4.055826    4.761036    -4.715894    -7.161018    7.377761    0.000000    0.000000    0.000000    -0.307528    4.935905    4.286314    1.424394    2.632999    -1.464116    2.957590    -4.788526    -13.773708    0.000000    0.000000    0.000000    
-6.292614    98.945244    68.337570    -0.771972    -1.848372    88.180664    0.904185    -7.148813    0.760165    1.099378    -6.550533    0.766542    1.688982    31.433826    -4.543087    1.169831    1.206971    -4.320426    13.456803    1.250767    -14.572301    -9.679852    3.977170    -4.697029    -1.360924    -4.743658    24.252172    0.812425    -4.471322    -2.711444    -14.273930    3.783216    -6.419245    7.833909    5.008254    24.896379    3.603510    2.060604    -18.498598    1.292829    2.605017    -3.735536    5.058764    5.353683    3.789842    -1.618788    4.055168    4.943819    -4.723036    -7.126361    7.207642    0.000000    0.000000    0.000000    -0.310247    4.934280    4.248444    1.421389    2.667209    -1.430053    2.926268    -4.803557    -13.783062    0.000000    0.000000    0.000000    
-6.294864    98.944847    68.339737    -0.757337    -1.845342    88.192444    0.890406    -7.146797    0.753916    1.107198    -6.544572    0.761621    1.662570    31.408342    -4.525649    1.162282    1.283687    -4.308455    13.458802    1.235539    -14.577497    -9.656239    3.899772    -4.701067    -1.387439    -4.714551    24.217072    0.997260    -4.441181    -2.696612    -14.270771    3.787817    -6.405768    7.872180    4.941100    24.879213    3.661055    2.232900    -18.510366    1.352303    2.785503    -3.697294    5.058304    5.352121    3.786402    -1.616801    4.080117    4.925637    -4.736899    -7.137791    7.210254    0.000000    0.000000    0.000000    -0.312629    4.934606    4.235273    1.425774    2.686826    -1.482807    2.967836    -4.822876    -13.728113    0.000000    0.000000    0.000000    
-6.294858    98.944283    68.342522    -0.743828    -1.846320    88.186806    0.907438    -7.143513    0.761028    1.045383    -6.558651    0.764338    1.740450    31.464954    -4.530203    1.105822    1.269366    -4.307762    13.535819    1.246503    -14.610773    -9.663633    3.821869    -4.692176    -1.386383    -4.708362    24.208078    0.971111    -4.434641    -2.686742    -14.202105    3.807132    -6.378855    7.885576    4.937259    24.843493    3.660416    2.222984    -18.475803    1.269530    2.777397    -3.664012    5.056780    5.357614    3.789799    -1.611393    4.096448    4.932714    -4.738637    -7.147148    7.207116    0.000000    0.000000    0.000000    -0.305671    4.937025    4.230091    1.416956    2.711711    -1.436070    2.957230    -4.835152    -13.763993    0.000000    0.000000    0.000000    
